<?xml version="1.0" encoding="utf-8"?>
<!-- Generator: Adobe Illustrator 16.0.0, SVG Export Plug-In . SVG Version: 6.00 Build 0)  -->
<!DOCTYPE svg PUBLIC "-//W3C//DTD SVG 1.1//EN" "http://www.w3.org/Graphics/SVG/1.1/DTD/svg11.dtd">
<svg version="1.1" id="Layer_1" xmlns="http://www.w3.org/2000/svg" xmlns:xlink="http://www.w3.org/1999/xlink" x="0px" y="0px"
	 width="100px" height="100px" viewBox="0 0 100 100" enable-background="new 0 0 100 100" xml:space="preserve">
<path fill="#7BBB5E" d="M100,90c0,5.522-4.478,10-10,10H10c-5.523,0-10-4.478-10-10V10C0,4.477,4.477,0,10,0h80
	c5.522,0,10,4.477,10,10V90z"/>
<g>
	<path fill="#FFFFFF" d="M79.688,28.906H20.312c-0.861,0-1.562,0.701-1.562,1.562v39.062c0,0.861,0.702,1.562,1.562,1.562h59.375
		c0.861,0,1.562-0.701,1.562-1.562V30.469C81.25,29.607,80.549,28.906,79.688,28.906L79.688,28.906z M75.938,32.031L50,57.969
		L24.062,32.031H75.938L75.938,32.031z M21.875,34.213L37.66,49.997L21.875,65.781V34.213L21.875,34.213z M24.139,67.969
		l15.702-15.701l9.062,9.062c0.626,0.626,1.563,0.626,2.188,0l9.062-9.062l15.701,15.701H24.139L24.139,67.969z M78.125,65.781
		L62.34,49.997l15.785-15.784V65.781L78.125,65.781z"/>
</g>
</svg>
