<?xml version="1.0" encoding="utf-8"?>
<!-- Generator: Adobe Illustrator 16.0.0, SVG Export Plug-In . SVG Version: 6.00 Build 0)  -->
<!DOCTYPE svg PUBLIC "-//W3C//DTD SVG 1.1//EN" "http://www.w3.org/Graphics/SVG/1.1/DTD/svg11.dtd">
<svg version="1.1" id="comp-2-logo" xmlns="http://www.w3.org/2000/svg" xmlns:xlink="http://www.w3.org/1999/xlink" x="0px"
	 y="0px" width="200px" height="100px" viewBox="0 0 200 100" enable-background="new 0 0 200 100" xml:space="preserve">
<rect id="canvas-box" width="200" height="100"/>
<g id="corners">
	<g id="top-left">
		
			<line fill="none" stroke="#49EBC3" stroke-width="3" stroke-linejoin="bevel" stroke-miterlimit="10" x1="1.5" y1="0" x2="1.5" y2="25"/>
		
			<line fill="none" stroke="#49EBC3" stroke-width="3" stroke-linejoin="bevel" stroke-miterlimit="10" x1="0" y1="1.5" x2="25" y2="1.5"/>
	</g>
	<g id="bottom-left">
		
			<line fill="none" stroke="#49EBC3" stroke-width="3" stroke-linejoin="bevel" stroke-miterlimit="10" x1="0" y1="98.5" x2="25" y2="98.5"/>
		
			<line fill="none" stroke="#49EBC3" stroke-width="3" stroke-linejoin="bevel" stroke-miterlimit="10" x1="1.5" y1="100" x2="1.5" y2="75"/>
	</g>
	<g id="bottom-right">
		
			<line fill="none" stroke="#49EBC3" stroke-width="3" stroke-linejoin="bevel" stroke-miterlimit="10" x1="198.5" y1="100" x2="198.5" y2="75"/>
		
			<line fill="none" stroke="#49EBC3" stroke-width="3" stroke-linejoin="bevel" stroke-miterlimit="10" x1="200" y1="98.5" x2="175" y2="98.5"/>
	</g>
	<g id="top-right">
		
			<line fill="none" stroke="#49EBC3" stroke-width="3" stroke-linejoin="bevel" stroke-miterlimit="10" x1="200" y1="1.5" x2="175" y2="1.5"/>
		
			<line fill="none" stroke="#49EBC3" stroke-width="3" stroke-linejoin="bevel" stroke-miterlimit="10" x1="198.5" y1="0" x2="198.5" y2="25"/>
	</g>
</g>
<g id="camera">
	
		<path id="camera-body" fill="#49EBC3" stroke="#49EBC3" stroke-width="3" stroke-linecap="square" stroke-linejoin="bevel" stroke-miterlimit="10" d="
		M149.5,73.5c0,2.762-2.238,5-5,5h-90c-2.761,0-5-2.238-5-5v-40c0-2.761,2.239-5,5-5h90c2.762,0,5,2.239,5,5V73.5z"/>
	
		<path id="camera-button" fill="#49EBC3" stroke="#49EBC3" stroke-width="3" stroke-linecap="square" stroke-linejoin="bevel" stroke-miterlimit="10" d="
		M141.5,43.5c0,1.657-1.343,3-3,3h-19c-1.657,0-3-1.343-3-3V24.5c0-1.657,1.343-3,3-3h19c1.657,0,3,1.343,3,3V43.5z"/>
	<rect id="camera-shutter" x="119.5" y="34.5" stroke="#000000" stroke-width="3" stroke-miterlimit="10" width="19" height="7"/>
	
		<circle id="camera-circle" stroke="#000000" stroke-width="3" stroke-linecap="square" stroke-linejoin="bevel" stroke-miterlimit="10" cx="76.5" cy="53.167" r="17.833"/>
	<text transform="matrix(1 0 0 1 61.1206 57.1084)" fill="#FFFFFF" font-family="'Baskerville-Italic'" font-size="16">Photo</text>
	<text transform="matrix(1 0 0 1 121.9014 42)" fill="#FFFFFF" font-family="'Baskerville-Italic'" font-size="12">Pro</text>
</g>
</svg>
